<?xml version="1.0" encoding="UTF-8" standalone="no"?><!DOCTYPE svg PUBLIC "-//W3C//DTD SVG 1.0//EN"
	"http://www.w3.org/TR/2001/REC-SVG-20010904/DTD/svg10.dtd">
<svg
   xmlns:svg="http://www.w3.org/2000/svg"
   xmlns="http://www.w3.org/2000/svg"
   version="1.0"
   width="600.00006"
   height="600"
   id="svg3203">
  <defs
     id="defs3205" />
  <g
     transform="translate(-321.78572,-198.07647)"
     id="layer1">
    <g
       transform="translate(-197.8738,177.14286)"
       id="g3180">
      <path
         d="M 819.65953,30.933609 C 979.73951,30.933671 1109.6596,160.85361 1109.6596,320.9336 C 1109.6595,481.01363 979.73961,610.93361 819.65953,610.93361 C 659.57955,610.93363 529.65952,481.01361 529.65952,320.9336 C 529.65941,160.85367 659.57955,30.933609 819.65953,30.933609 z "
         style="fill:#ffffff;fill-opacity:1;stroke:#000000;stroke-width:20;stroke-miterlimit:4;stroke-dasharray:none;stroke-dashoffset:1.8;stroke-opacity:1"
         id="path3178" />
      <g
         transform="translate(408.25716,-54.30105)"
         id="g2212">
        <path
           d="M 539.32398,153.69798 C 509.30678,136.36752 477.24508,125.83484 444.87698,121.5917 L 444.81718,151.32535 L 444.88968,151.36721 C 472.20898,155.43453 499.23438,164.57294 524.59258,179.21353 C 549.92718,193.84044 571.31318,212.6732 588.48718,234.27322 L 614.32178,219.32405 C 594.47328,193.45046 569.30788,171.00917 539.32398,153.69798 z "
           style="fill:#000000;fill-opacity:1;stroke:none;stroke-width:3;stroke-miterlimit:4;stroke-dasharray:none;stroke-dashoffset:1.8;stroke-opacity:1"
           id="path3172" />
        <path
           d="M 647.70088,277.35208 L 621.98068,292.27064 C 642.47758,344.39814 643.51968,403.65601 621.99998,458.13288 L 647.73308,472.98984 C 674.33888,408.87683 672.97708,338.54023 647.70088,277.35208 z "
           style="fill:#000000;fill-opacity:1;stroke:none;stroke-width:3;stroke-miterlimit:4;stroke-dasharray:none;stroke-dashoffset:1.8;stroke-opacity:1"
           id="path3170" />
        <path
           d="M 377.86108,121.65667 C 312.30608,130.3989 250.71238,164.37097 208.53208,219.41708 L 234.33768,234.3159 C 270.73168,188.46701 322.51908,159.76867 377.87388,151.43217 L 377.86108,121.65667 z "
           style="fill:#000000;fill-opacity:1;stroke:none;stroke-width:3;stroke-miterlimit:4;stroke-dasharray:none;stroke-dashoffset:1.8;stroke-opacity:1"
           id="path3168" />
        <path
           d="M 430.20678,182.32311 L 392.70718,182.32225 L 392.64428,282.70511 C 372.90478,286.72635 354.46598,297.01136 340.63208,312.6954 L 253.79228,262.55839 L 235.04318,295.03272 L 321.88308,345.16974 C 315.21698,364.99597 315.52528,386.1008 321.91678,405.20875 L 235.05598,455.38212 L 253.80648,487.8573 L 340.66738,437.68394 C 347.25928,445.15343 355.12088,451.73104 364.22108,456.98506 C 373.32138,462.23909 382.94858,465.75866 392.71328,467.73266 L 392.69228,568.04305 L 430.19188,568.04393 L 430.14038,467.69168 C 449.90108,463.67934 468.37758,453.44117 482.22508,437.74325 L 569.06488,487.88026 L 587.81398,455.40593 L 500.97418,405.26891 C 507.64498,385.43164 507.26898,364.30489 500.86788,345.18804 L 587.84308,294.98404 L 569.09258,262.50886 L 482.23168,312.68222 C 475.63978,305.21273 467.73628,298.70762 458.63608,293.4536 C 449.53578,288.19958 439.95048,284.60752 430.18578,282.6335 L 430.20678,182.32311 z "
           style="fill:#000000;fill-opacity:1;stroke:none;stroke-width:3;stroke-miterlimit:4;stroke-dasharray:none;stroke-dashoffset:1.8;stroke-opacity:1"
           id="path3166" />
        <path
           d="M 175.05168,277.40696 C 148.47048,341.45921 149.84658,411.78691 175.05308,472.93038 L 200.84588,458.05368 C 180.38808,405.9468 179.34788,346.74844 200.85718,292.30577 L 175.05168,277.40696 z "
           style="fill:#000000;fill-opacity:1;stroke:none;stroke-width:3;stroke-miterlimit:4;stroke-dasharray:none;stroke-dashoffset:1.8;stroke-opacity:1"
           id="path3164" />
        <path
           d="M 588.51958,516.12275 C 552.10098,561.99775 500.26118,590.72418 444.86898,599.03712 L 444.80918,628.77078 C 510.43778,620.0665 572.03198,586.07761 614.25258,530.97973 L 588.51958,516.12275 z "
           style="fill:#000000;fill-opacity:1;stroke:none;stroke-width:3;stroke-miterlimit:4;stroke-dasharray:none;stroke-dashoffset:1.8;stroke-opacity:1"
           id="path3162" />
        <path
           d="M 234.22498,516.08173 L 208.50478,531.00027 C 228.36348,556.9103 253.51588,579.41022 283.53318,596.7407 C 313.51698,614.05188 345.53448,624.62515 377.86588,628.87762 L 377.89498,599.0296 C 350.60178,594.95655 323.59918,585.85204 298.26458,571.22513 C 272.90628,556.58454 251.47958,537.74905 234.29748,516.12359 C 234.28138,516.10335 234.24108,516.10195 234.22498,516.08173 z "
           style="fill:#000000;fill-opacity:1;stroke:none;stroke-width:3;stroke-miterlimit:4;stroke-dasharray:none;stroke-dashoffset:1.8;stroke-opacity:1"
           id="path2297" />
      </g>
    </g>
  </g>
</svg>
