<svg xmlns="http://www.w3.org/2000/svg" xmlns:xlink="http://www.w3.org/1999/xlink" version="1.1" x="0px" y="0px" viewBox="0 0 512 512" style="enable-background:new 0 0 512 512;" xml:space="preserve"><path d="M451.786,228.74h-35.153v-39.292c0-4.049-3.297-7.346-7.346-7.346H265.362v-31.946h57.262  c8.17,0,14.817-7.597,14.817-16.914V53.369c0-9.317-6.647-16.896-14.817-16.896H193.39c-8.152,0-14.799,7.579-14.799,16.896v79.873  c0,9.478,6.504,16.914,14.799,16.914h57.28v31.946H102.73c-4.049,0-7.346,3.297-7.346,7.346v39.292H60.214  c-9.801,0-17.774,7.973-17.774,17.774v57.28c0,9.801,7.973,17.791,17.774,17.791h85.015c9.801,0,17.774-7.991,17.774-17.791v-57.28  c0-9.801-7.973-17.774-17.774-17.774h-35.153v-31.946H250.67v31.946h-37.177c-9.801,0-17.774,7.973-17.774,17.774v57.28  c0,9.801,7.973,17.791,17.774,17.791h37.177v16.609H102.73c-4.049,0-7.346,3.297-7.346,7.346v39.292H72.487  c-9.801,0-17.774,7.991-17.774,17.791v55.13c0,9.801,7.973,17.774,17.774,17.774h78.709c9.801,0,17.791-7.973,17.791-17.774v-55.13  c0-9.801-7.991-17.791-17.791-17.791h-41.119v-31.946H250.67v31.946h-34.024c-9.801,0-17.774,7.991-17.774,17.791v55.13  c0,9.801,7.973,17.774,17.774,17.774h78.709c9.801,0,17.791-7.973,17.791-17.774v-55.13c0-9.801-7.991-17.791-17.791-17.791h-29.993  v-31.946h136.58v31.946h-41.137c-9.801,0-17.774,7.991-17.774,17.791v55.13c0,9.801,7.973,17.774,17.774,17.774h78.709  c9.801,0,17.791-7.973,17.791-17.774v-55.13c0-9.801-7.991-17.791-17.791-17.791h-22.88v-39.292c0-4.049-3.297-7.346-7.346-7.346  H265.362v-16.609h33.146c9.801,0,17.774-7.991,17.774-17.791v-57.28c0-9.801-7.973-17.774-17.774-17.774h-33.146v-31.946h136.58  v31.946h-35.171c-9.801,0-17.773,7.973-17.773,17.774v57.28c0,9.801,7.973,17.791,17.773,17.791h85.016  c9.801,0,17.774-7.991,17.774-17.791v-57.28C469.56,236.712,461.587,228.74,451.786,228.74z M193.282,133.243V53.369  c0-1.38,0.538-2.168,0.179-2.204l128.536-0.161c0.143,0.108,0.753,0.896,0.753,2.365v79.873c0,1.398-0.538,2.186-0.197,2.222  l-64.095,0.09c-0.155-0.01-0.284-0.09-0.441-0.09c-0.159,0-0.291,0.081-0.448,0.091l-63.533,0.088  C193.891,135.518,193.282,134.73,193.282,133.243z M148.311,246.513v57.28c0,1.72-1.38,3.1-3.082,3.1H60.214  c-1.702,0-3.082-1.38-3.082-3.1v-57.28c0-1.702,1.38-3.082,3.082-3.082h85.015C146.931,243.431,148.311,244.811,148.311,246.513z   M154.295,402.623v55.13c0,1.702-1.38,3.082-3.1,3.082H72.487c-1.702,0-3.082-1.38-3.082-3.082v-55.13c0-1.72,1.38-3.1,3.082-3.1  h78.709C152.915,399.523,154.295,400.903,154.295,402.623z M298.454,402.623v55.13c0,1.702-1.38,3.082-3.1,3.082h-78.709  c-1.702,0-3.082-1.38-3.082-3.082v-55.13c0-1.72,1.38-3.1,3.082-3.1h78.709C297.074,399.523,298.454,400.903,298.454,402.623z   M442.613,402.623v55.13c0,1.702-1.38,3.082-3.1,3.082h-78.709c-1.702,0-3.082-1.38-3.082-3.082v-55.13c0-1.72,1.38-3.1,3.082-3.1  h78.709C441.233,399.523,442.613,400.903,442.613,402.623z M301.589,246.513v57.28c0,1.72-1.38,3.1-3.082,3.1h-85.016  c-1.702,0-3.082-1.38-3.082-3.1v-57.28c0-1.702,1.38-3.082,3.082-3.082h85.016C300.21,243.431,301.589,244.811,301.589,246.513z   M454.868,303.793c0,1.72-1.38,3.1-3.082,3.1h-85.016c-1.702,0-3.082-1.38-3.082-3.1v-57.28c0-1.702,1.38-3.082,3.082-3.082h85.016  c1.702,0,3.082,1.38,3.082,3.082V303.793z"></path></svg>