<?xml version="1.0" encoding="utf-8"?>
<!-- Generator: Adobe Illustrator 22.0.1, SVG Export Plug-In . SVG Version: 6.00 Build 0)  -->
<svg version="1.1" id="Layer_1" xmlns="http://www.w3.org/2000/svg" xmlns:xlink="http://www.w3.org/1999/xlink" x="0px" y="0px"
	 viewBox="0 0 341.4 300.4" style="enable-background:new 0 0 341.4 300.4;" xml:space="preserve">
<style type="text/css">
	.st0{fill:#D1C63F;}
	.st1{fill:#2B2876;}
</style>
<path class="st0" d="M310.9,155.4c10.8,9.7,20.7,18.5,30.5,27.2c-2.5-15-5.9-29.3-9.7-43.6c-3.9-14.8-13.8-26.3-21.6-38.1
	c2.4-2.6,5.4-4.8,7.1-7.7c3.8-6.6,7.5-13.4,10.4-20.4c9.4-22.8,7.6-45.5-1.5-68c-2.4-5.9-8.3-6.4-12.1-1.5c-1.2,1.6-2.6,3.2-4.2,4.2
	c-10.5,6.6-21.2,13.1-31.9,19.5c-1.2,0.7-3.2,0.8-4.6,0.4c-12.9-3.9-25.8-7.8-38.5-12.1c-18.1-6.2-36.5-11.7-55.7-13.1
	c-21.1-1.6-41.4,2.9-61.3,9.3c-16.3,5.2-32.6,10.6-48.9,15.7c-1.9,0.6-4.4,0.3-6.1-0.6c-8.2-4.4-16.3-9-24.2-14
	c-3.9-2.5-7.2-5.9-11-8.6c-2.1-1.5-4.8-3.7-6.9-3.4c-2.2,0.3-5.1,2.9-5.7,5.1c-2.8,10.1-5.7,20.2-7.1,30.5
	c-1.7,12.1,0.7,24,5.3,35.2c4.5,10.9,8.1,22.5,18.8,29.7c-21.2,22.5-27.3,51-32,80c0.4,0.2,0.8,0.3,1.2,0.2
	c9.5-8.4,19-16.8,28.5-25.2c0.4,0.3,0.8,0.5,1.2,0.8c-0.5,1.2-0.9,2.5-1.6,3.5c-3.7,5.4-7.8,10.4-8,17.7
	c-0.6,24.1,1.1,47.9,6.7,71.4c0.5,2.3,2.9,5.3,4.9,5.8c2.1,0.5,5.2-1.3,7-3.1c4.3-4.3,8.1-9.1,12.3-13.9c6.7,10,13,19.4,19.4,28.7
	c3.2,4.6,7.3,5.5,12.1,2.6c3.9-2.2,7.7-2.3,11.9-0.8c23.1,8.1,45.4,18.1,66.8,29.9c3.7,2,6.7,2.2,10.9,0.4
	c24.1-10.3,48.3-20.4,72.6-30.1c3-1.2,7.4-1.2,10.4,0.1c8.1,3.5,10.2,3.3,15.2-4.1c5.8-8.6,11.6-17.2,17.7-26.3
	c4.1,4.6,7.9,8.8,11.5,13.1c2.2,2.6,4.7,5.8,8.2,3.9c2.4-1.3,4.4-4.5,5-7.2c4.3-19.8,6.2-39.8,6.4-60c0.1-10.8-0.7-20.9-9-28.9
	C310.8,159,311.1,157.5,310.9,155.4z"/>
<g>
	<path class="st1" d="M0,181.1c4.7-29,10.8-57.5,32-80c-10.7-7.2-14.3-18.8-18.8-29.7c-4.6-11.2-7-23.1-5.3-35.2
		C9.3,25.9,12.2,15.8,15,5.7c0.6-2.2,3.5-4.8,5.7-5.1c2.1-0.3,4.8,1.9,6.9,3.4c3.8,2.7,7.1,6.1,11,8.6c7.9,5,16,9.6,24.2,14
		c1.7,0.9,4.2,1.2,6.1,0.6c16.3-5.1,32.6-10.5,48.9-15.7c19.9-6.4,40.2-10.9,61.3-9.3c19.2,1.4,37.6,6.9,55.7,13.1
		c12.7,4.3,25.6,8.2,38.5,12.1c1.4,0.4,3.4,0.3,4.6-0.4c10.7-6.4,21.4-12.9,31.9-19.5c1.6-1,3-2.6,4.2-4.2c3.8-4.9,9.7-4.4,12.1,1.5
		c9.1,22.5,10.9,45.2,1.5,68c-2.9,7-6.6,13.8-10.4,20.4c-1.7,2.9-4.7,5.1-7.1,7.7c7.8,11.8,17.7,23.3,21.6,38.1
		c3.8,14.3,7.2,28.6,9.7,43.6c-9.8-8.7-19.7-17.5-30.5-27.2c0.2,2.1-0.1,3.6,0.4,4.2c8.3,8,9.1,18.1,9,28.9
		c-0.2,20.2-2.1,40.2-6.4,60c-0.6,2.7-2.6,5.9-5,7.2c-3.5,1.9-6-1.3-8.2-3.9c-3.6-4.3-7.4-8.5-11.5-13.1
		c-6.1,9.1-11.9,17.7-17.7,26.3c-5,7.4-7.1,7.6-15.2,4.1c-3-1.3-7.4-1.3-10.4-0.1c-24.3,9.7-48.5,19.8-72.6,30.1
		c-4.2,1.8-7.2,1.6-10.9-0.4c-21.4-11.8-43.7-21.8-66.8-29.9c-4.2-1.5-8-1.4-11.9,0.8c-4.8,2.9-8.9,2-12.1-2.6
		c-6.4-9.3-12.7-18.7-19.4-28.7c-4.2,4.8-8,9.6-12.3,13.9c-1.8,1.8-4.9,3.6-7,3.1c-2-0.5-4.4-3.5-4.9-5.8
		c-5.6-23.5-7.3-47.3-6.7-71.4c0.2-7.3,4.3-12.3,8-17.7c0.7-1,1.1-2.3,1.6-3.5c-0.4-0.3-0.8-0.5-1.2-0.8c-9.5,8.4-19,16.8-28.5,25.2
		C0.8,181.4,0.4,181.3,0,181.1z M75.1,48.3c-0.4-0.2-0.8-0.5-1.2-0.7c-9.3-5.5-18.6-10.9-27.8-16.3C38.7,27,31.4,22.6,23.7,18
		c-3.1,8.8-4.6,17.5-4.1,26.4c1,18.3,8.8,34,19.1,48.7c2,2.9,2.8,6.8,3.9,9.8c6.5-2.2,14.2-5,22.1-7.5c2.5-0.8,6-0.9,6.3,2.7
		c0.1,1.7-1.9,4.3-3.7,5.3c-8.6,5.1-17.6,9.4-26,14.7c-15,9.6-26.6,21.8-28.5,40.9c4-3,8-5.9,11.9-9c5.8-4.4,11.1-9.9,18.9-10.1
		c2.1-0.1,4.6,1.5,6.1,3c0.5,0.6-1,3.8-2.2,5.2c-5.8,6.9-12,13.9-13.2,22.9c-2.9,21.7-0.4,43.2,3.1,65.5c3.6-3.8,6.9-6.9,9.6-10.4
		c1-1.4,1.5-3.9,1.1-5.6c-2-8-4.7-15.8-6.5-23.8c-0.6-2.7-0.2-7,1.5-8.5s5.7-0.4,8.7-0.1c1.2,0.1,2.3,1.2,3.6,1.6
		c6.5,1.7,13,3.3,19.9,5.1c0.1-2.7,0.5-4.2,0.3-5.6c-1.3-8.5-2.9-17-4.2-25.5c-0.7-4.2-1.6-8.6-1.3-12.8c0.3-4.9,3.7-6.2,7.7-3.4
		c3.4,2.4,6.7,4.9,9.9,7.6c9.5,7.9,20.4,11.2,32.8,10.9c10.5-0.3,21.7-13.3,19.5-23.5c-1-4.5-2.1-8.9-3.6-13.2
		c-4.1-11.5,0.7-20.8,7.1-29.6c2.9-4,8.5-3,9.6,1.8c0.6,2.3-0.3,5.5-1.7,7.7c-4.7,7.6-6,15.4-3.2,23.9c1.4,4.2,2.6,8.5,3.8,12.8
		c1.6,6.4-2,15.2-7.3,19c-3.2,2.3-6.3,4.9-8.8,8c-3.5,4.2-6,9.1-9.5,13.2c-3.9,4.7-8.5,8.8-12.8,13.2c0.3,0.5,0.6,0.9,1,1.4
		c1.4,0.1,2.9-0.1,4.2,0.3c1.3,0.5,2.3,1.6,3.4,2.5c-1.2,0.6-2.3,1.5-3.5,1.7c-1.8,0.3-3.7,0.1-5.5-0.1c-3.8-0.4-5.7,1.4-6.8,5
		c2.7,0.5,5.1,0.9,7.5,1.4c-0.1,3.9-0.4,4-5.8,3.6c-7.4-0.7-9.2,0.8-10.2,9.1c5.3,0,10.6-0.1,15.8,0.1c1.3,0.1,2.5,1.2,3.8,1.8
		c-1.3,0.7-2.5,1.9-3.8,2c-5.1,0.2-10.2,0.1-15.4,0.1c1.8,8.9-0.3,7.9,8.4,8c6.5,0,13-0.1,19.5,0.1c1.4,0,2.7,1.3,4.1,2
		c-1.5,0.6-3,1.7-4.5,1.7c-7.9,0.2-15.7,0.1-23.8,0.1c2.4,8.2,2.8,8.4,10.4,8.6c2.1,0.1,5.6-1.4,5.7,3.3c-2.8,0.2-5.3,0.3-8.6,0.5
		c1.3,1.5,2,2.6,2.9,3.4c9.4,8.1,20.3,12,32.6,10.4c5.4-0.7,10.9-2.5,15.8-4.9c4.5-2.2,4.4-5.7,1-9.2c-2.3-2.4-4.4-5-6.7-7.4
		s-2.5-4.6-0.7-7.6c0.7-1.2,0.7-3.9-0.1-4.8c-0.8-0.9-3.2-0.4-4.8-0.4c-2.3-0.1-4.9,0.5-6.7-0.4c-3.1-1.5-5.7-4-8.4-6.2
		c-3.2-2.6-3-7.1,0.7-9c3.4-1.7,6.9-3.4,10.4-4.7c4.4-1.6,8.6-1.3,12.6,1.8c10.1,7.7,16.2,7.7,26.4,0.1c3.9-2.9,7.8-4.3,12.5-2.3
		c3.9,1.7,7.9,3.4,11.6,5.6c1.2,0.7,2,2.8,2,4.3c0,2.9-11.3,12.1-14.1,11.9c-0.8-0.1-1.5-0.8-2.3-0.8c-1.9-0.1-3.8,0-5.7,0.1
		c0.2,1.7-0.2,3.6,0.6,5.1c1.4,2.7,1.4,4.9-0.7,7.2c-1.4,1.4-2.7,3-4,4.4c-3.8,3.9-4.1,7-0.5,11.1c2.2,2.4,4.9,4.6,7.9,5.8
		c7.1,3,14.6,3.4,21.9,1.1c8.7-2.7,16.3-7.3,23.2-14.9c-5.2,0-9.2,0-13.2,0c-0.2-0.4-0.4-0.8-0.6-1.1c1-0.7,2-2,3.1-2.1
		c2.6-0.3,5.3-0.3,8-0.1c7.3,0.6,8.4-0.3,10-8.6c-9.7,0-19.3,0.1-28.9-0.1c-1.3,0-2.6-1.1-4-1.7c1.2-0.7,2.4-2,3.6-2.1
		c10-0.2,20-0.1,30.2-0.1c0-2.3,0-5.1,0-8c-6.1,0-11.7,0.2-17.1-0.1c-1.4-0.1-2.7-1.5-4-2.3c0.3-0.5,0.6-1.1,0.8-1.6
		c6.4,0,12.8,0,19.4,0c-0.9-5.6-3-9.1-9.1-8c-1.1,0.2-2.4,0.3-3.5-0.1c-1.2-0.4-2.1-1.4-3.2-2.1c1-0.6,1.9-1.5,3-1.7
		c1.7-0.3,3.5-0.1,5.7-0.1c-2.2-4.4-4.7-6.9-9.3-5.9c-2.1,0.5-4.9,2.2-5.5-1.4c-0.1-0.6,3.4-1.8,5.2-2.7c0.3-0.1,0.5-0.4,1.7-1.4
		c-4.8-5-9.6-9.9-14.3-14.8c-1-1.1-2-2.2-2.7-3.5c-3.6-7.1-8.8-12.8-15.3-17.4c-4.6-3.2-6.2-8.4-6.2-13.4c0-5.9,1.3-11.8,2.7-17.6
		c2.4-9.4,1.7-18-4.3-26c-2.4-3.3-1.8-6.8,1.5-9.3c3.5-2.7,6.2-0.9,8.4,2.2c7.7,10.8,10.5,22.7,6.2,35.5c-2.1,6.4-2,12.3-0.3,18.6
		c1.5,5.5,7.7,10.8,13.3,11c11.7,0.4,22.9-0.7,32.4-8.7c3.6-3,7.3-5.8,11.3-8.3c2.1-1.3,5.8-3.1,6.8-2.3c1.8,1.5,3,4.8,2.8,7.3
		c-0.3,5.1-1.6,10.1-2.7,15.2c-1.6,7.9-3.5,15.8-2.4,24c8.1,0.7,15.2-1.3,22.2-4.1c3-1.2,7.7-2.2,9.5-0.8c1.9,1.6,1.4,6.2,1.8,9.5
		c0.1,0.4-0.4,0.9-0.5,1.4c-2.1,7.4-4.3,14.8-6.3,22.3c-0.3,1.2-0.5,3.2,0.2,3.9c3.3,3.6,6.9,7,10.5,10.6c0.5-1.7,1.2-3.1,1.2-4.5
		c1.1-15.9,2.1-31.8,3.1-47.7c0.9-14.4-5.3-25.9-14.9-36.1c-1.1-1.2-2.1-3.8-1.6-5c0.6-1.3,3-2.2,4.8-2.5c5.7-0.9,10.2,2.1,14.5,5.3
		c5.9,4.4,11.7,9,18.8,14.5c-2.5-7.5-4.4-13.6-6.6-19.6c-0.6-1.7-1.5-3.3-2.7-4.6c-12.7-14-27.9-24.5-45.3-32
		c-2.8-1.2-6.2-2.1-5-6.1c1.2-4.1,4.8-2.9,7.6-2.3c3.1,0.6,6.1,1.5,9.1,2.7c4.3,1.6,8.4,3.6,11.7,5c1-3,1.4-6.3,3.1-8.6
		c10.6-14.4,18.1-30,20.1-47.9c1.1-9.8-1-19.2-4-28.2c-13.5,7.5-26.7,15.1-40,22.5C265,48.2,252.9,55.9,243,66.7
		c-2.1,2.3-2.3,4-0.1,5.8c2.7,2.2,5.6,4.1,8.5,5.9c3.8,2.3,5,5.4,3,8.6c-2.2,3.5-5.6,4.6-9,2.1c-4.8-3.5-9.5-7.3-13.4-11.7
		c-4.4-5-4.4-10.2-0.1-15.5c4.3-5.2,9.2-10,14.3-14.6c4-3.6,8.7-6.5,13.6-10.1c-14.4-5-28.2-9.9-42-14.5c-26.1-8.7-52.7-12-79.5-4.2
		c-16.8,4.9-33.2,10.8-49.8,16.3c-2.1,0.7-4.2,1.4-7.1,2.4c2.3,1.6,3.9,2.5,5.3,3.7c7.5,6.7,15.2,13.4,22.5,20.4
		c3.3,3.2,4.5,7.7,2.5,12c-3.5,7.7-9.8,13-17.5,16.4c-3.2,1.4-6-0.1-7.5-3.2s-1-5.7,2.3-7.6c2.7-1.5,5.4-3.2,7.9-5.1
		c3-2.4,4-5.7,0.7-8.4C90.2,59.5,82.6,53.9,75.1,48.3z M84.7,183.4c-0.7,6-1.3,10.1-1.6,14.2c-0.3,4.2-2.2,5.1-6.2,4.3
		c-6.1-1.2-12.4-2.1-18.6-2.5c-1.7-0.1-4.2,1.5-5,3c-0.7,1.3,0,4.1,1.1,5.3c7.5,8.8,11,19.1,14,30.2c4.8,17.7,12.1,23.7,28.7,22.4
		c4.5-0.4,6-3,3.9-7c-2.3-4.2-4.4-8.6-6.9-12.7c-5.3-8.5-5.7-17.6-0.9-26c5-8.7,11.7-16.3,17.5-24.5c3-4.1,6.2-8.2,8.7-12.6
		c1.6-2.8-1.3-6.9-4-6.1c-10.9,3-19.7-0.1-27.3-8.1c-1-1.1-4.5-0.9-6,0.1c-1,0.6-1.1,3.7-0.8,5.5C82.2,174.3,83.7,179.6,84.7,183.4z
		 M262,204c-2.3-11.1-4.7-22.8,1-34.3c1.3-2.6,1.2-5.2-1.5-6.3c-1.7-0.6-4.1,0.3-6,0.9c-1,0.3-1.7,1.6-2.5,2.4
		c-5.3,4.8-11.5,7.1-18.6,6.6c-3.3-0.3-7.1-3-9.5,1c-2.6,4.4,1.7,7.3,3.5,10.6c0.6,1.1,1.7,2,2.6,3c4.8,5.7,9.9,11.2,14.3,17.2
		c6.7,8.9,11,18.8,7.6,30.1c-1.8,5.8-4.9,11.2-7.7,16.6c-1.7,3.2-1.1,5.4,2,7c7.1,3.5,21.6-2,24.5-9.3c1.5-3.8,3-7.7,3.8-11.6
		c2.2-10.3,5.2-20,12.1-28.3c2.7-3.3,0.5-7.2-3.7-7C276.8,202.6,269.7,203.4,262,204z M134.1,275.4c6.2,7.1,11,10.5,19.6,12.9
		c9,2.4,17.2,7.6,27.6,2.3c8-4.1,17.5-5.5,23.9-13.1c-1.7-1.5-3.1-2.8-4.5-4.1c-9.1,8.1-19.5,11.2-31.3,11s-22-4-30.5-12.4
		C137.3,273.2,135.9,274.2,134.1,275.4z M182.3,225.3c-7.1,3.6-15.3,3.8-24.6-1c4.1,4.9,6.6,8.7,4.8,13.9c-0.3,0.8,0.4,2.2,1.1,2.9
		c1.7,2,3.6,3.9,5.6,5.7c0.8,0.7,2.7,1.5,2.9,1.2c2.8-3.5,6-6.8,7.8-10.8C181.5,233.7,181.6,229.4,182.3,225.3z M144.5,222.8
		c4.5,0.4,8,0.7,11.8,1.1C152.9,220.7,149.7,218.6,144.5,222.8z M196.8,222.9c-4.4-4.5-7.4-1.9-11,1.1
		C189.9,223.5,193.4,223.2,196.8,222.9z"/>
	<path class="st1" d="M75.1,48.3c-0.3,3.1-0.5,6.1-1,9.2c-1.3,8.9-2.7,17.7-4,26.5c-0.2,1.5-0.1,3.1-0.7,4.4
		c-0.8,1.7-1.8,3.9-3.2,4.4c-1.5,0.5-4-0.4-5.3-1.5c-6.2-5.5-12.1-11.3-18.2-17c-2.6-2.5-4.8-5.4-9.1-5.3c-1.1,0-3.1-2.3-3.2-3.7
		c-0.1-1.6,1.1-4.1,2.5-4.8c3.5-1.8,7.4-3.1,11.2-3.8c1.6-0.3,4.9,1.5,5.1,2.6c0.9,7.3,7.5,9.6,11.8,14.2c0.3-5.8,5.4-11.2,0.3-17.3
		c-1.9-2.2-0.7-5,2.2-5.9c3.4-1.2,7-1.9,10.4-2.9C74.3,47.8,74.7,48,75.1,48.3z"/>
	<path class="st1" d="M236.4,108.3c9.8,0.5,19.9,6.2,26.9,17.3c0.9,1.4,1.7,3,2.9,4c2.7,2.2,5.5,1.3,6-2.1c0.5-2.8,1.9-4.9,4.5-3.8
		c1.8,0.7,3.8,3.4,3.9,5.3c0.3,5.6-5.6,10.6-11.8,10.3c-6.8-0.3-12.4,2.1-17.1,7c-11.1,11.8-23.8,12-35.3,0.8
		c-9.4-9.1-10.2-12-6-22.1C215.2,113.4,222.2,108.2,236.4,108.3z M256.6,131.9c-4.5-8.4-11.3-13.7-21.2-15
		c-9.2-1.3-19.2,7.7-18.6,16.9c0,0.6,0.3,1.3,0.6,1.9c6.4,12.2,18.9,14.2,28.9,4.8C249.5,137.6,252.9,135,256.6,131.9z"/>
	<path class="st1" d="M107.9,153.3c-6.3,0.4-11.5-2.2-15.6-6.5c-6-6.5-12.8-9.8-21.8-9.6c-5.6,0.1-10.2-5.3-9.3-10.7
		c0.3-1.6,2.2-3.5,3.8-4c2.4-0.8,3.8,0.6,4.1,3.5c0.4,4,3.4,5,6.6,2.2c2.4-2.2,4.4-4.9,6.3-7.6c7.2-10.5,23-16.1,34.7-12.2
		c8.9,2.9,18.2,17.3,16.4,26.4c-0.6,2.8-3.1,5.4-5,7.8C122,149.8,115.4,153.3,107.9,153.3z M84.8,130.4c4.3,3.7,8.4,7,12.3,10.5
		c5.6,5,11.5,6.4,17.1,2.7c3.8-2.5,6.9-6,10.2-9.2c0.7-0.7,0.9-2.2,0.7-3.2c-3.8-13.9-9.6-18.7-23.4-15.2
		C93.5,118.1,88.6,124,84.8,130.4z"/>
	<path class="st1" d="M189.2,87c-2.9-1.4-6.6-2.8-9.9-4.9c-4.2-2.8-8.1-2.8-12.6-0.7c-4.3,2-8.8,4-13.5,4.9
		c-6.6,1.3-12-1.7-16.2-6.8c-4.8-5.9-8.4-12.9-17-14.6c-1-0.2-2-3.4-1.7-5c0.1-1,3-2.6,4-2.3c3.8,1.4,7.8,3,10.9,5.5
		c3.7,3,6.5,7.1,9.7,10.7c4.7,5.3,8.2,6,14.6,2.9c2.3-1.1,4.5-2.2,6.7-3.3c6.5-3.3,12.7-2.9,18.8,1.3c6.9,4.8,9.4,4.6,16.1-0.6
		c6-4.7,11.8-9.8,17.8-14.6c1.5-1.1,3.5-2.2,5.2-2.2c3.3,0,5.2,4,2.8,6c-9.3,7.5-18.8,14.8-28.4,21.9
		C194.9,86.3,192.4,86.2,189.2,87z"/>
	<path class="st1" d="M282.7,73.7c4.1-5.5,11-7.2,11.8-14.7c0.1-1.2,3.6-3.1,5.3-2.9c3.5,0.4,7.2,1.7,10.3,3.4
		c1.6,0.9,3.1,3.6,3,5.3c-0.1,1.4-2.6,2.7-4.3,3.8c-1.4,0.9-3.4,1.1-4.6,2.2c-6.5,5.9-12.8,12.1-19.5,17.9c-2,1.7-5.2,2.9-7.7,2.7
		c-1.2-0.1-2.4-4.1-2.9-6.4c-2.1-10.7-4-21.4-6-32.1c-0.6-3.3,0.3-6,4.2-5.4c3,0.4,6.3,1.2,8.8,2.7c1.2,0.7,2.1,4.9,1.4,5.4
		c-3.9,3.3-1.8,7-1.5,10.5C281.4,68.2,282.1,70.4,282.7,73.7z"/>
	<path class="st1" d="M186.5,52.2c-4.1-1.5-7.5-2.4-10.5-4.1c-4.2-2.4-8-2.6-12.2-0.4c-5.9,3.1-12,3-17.3-1.1c-1.3-1-1.4-3.5-2-5.3
		c1.9-0.6,4.5-2.3,5.6-1.6c4.4,2.6,8.3,1.9,12.3-0.2c5.5-2.9,10.8-2.7,16.1,0.5c4.9,2.9,9.6,4.2,14.6-0.3c0.9-0.8,4.6-0.2,5.4,0.9
		c0.9,1.2,0.5,4.7-0.5,5.5C194.4,48.5,190.3,50.2,186.5,52.2z"/>
	<path class="st1" d="M244.1,133.6c-2.5,3.1-3.8,6.5-6.1,7.4c-3.7,1.4-6-1.8-7.4-4.9c-1.7-3.8-2.2-7.9,0.7-11.2
		c1.1-1.2,4.8-1.9,5.6-1.1C239.5,126.3,241.3,129.7,244.1,133.6z"/>
	<path class="st1" d="M113.1,129.4c0,5.5-3.6,10.4-7.4,10.2c-4.5-0.2-5-4-5.4-7.2c-0.5-4.7,3.8-10.4,7.4-10.5
		C110.9,121.8,113.1,124.8,113.1,129.4z"/>
</g>
</svg>
